<?xml version="1.0" encoding="utf-8"?>
<!-- Generator: Adobe Illustrator 15.0.2, SVG Export Plug-In . SVG Version: 6.00 Build 0)  -->
<!DOCTYPE svg PUBLIC "-//W3C//DTD SVG 1.1//EN" "http://www.w3.org/Graphics/SVG/1.1/DTD/svg11.dtd">
<svg version="1.1" id="Calque_1" xmlns="http://www.w3.org/2000/svg" xmlns:xlink="http://www.w3.org/1999/xlink" x="0px" y="0px"
	 width="120px" height="10px" viewBox="0 0 120 10" enable-background="new 0 0 120 10" xml:space="preserve">
<rect fill="#2D2D2D" width="10" height="10"/>
<g>
	<g>
		<path fill="#2D2D2D" d="M19,1v8h-8V1H19 M20,0H10v10h10V0L20,0z"/>
	</g>
</g>
<rect x="20" opacity="0.15" fill="#2D2D2D" enable-background="new    " width="10" height="10"/>
<rect x="30" fill="#2D2D2D" width="10" height="10"/>
<g>
	<g>
		<path fill="#2D2D2D" d="M49,1v8h-8V1H49 M50,0H40v10h10V0L50,0z"/>
	</g>
</g>
<g>
	<g>
		<path fill="#2D2D2D" d="M69,1v8h-8V1H69 M70,0H60v10h10V0L70,0z"/>
	</g>
</g>
<g>
	<g>
		<path fill="#2D2D2D" d="M99,1v8h-8V1H99 M100,0H90v10h10V0L100,0z"/>
	</g>
</g>
<g>
	<g>
		<path fill="#2D2D2D" d="M79,1v8h-8V1H79 M80,0H70v10h10V0L80,0z"/>
	</g>
</g>
<rect x="50" fill="#2D2D2D" width="10" height="10"/>
<g opacity="0.15" enable-background="new    ">
	<rect x="70" fill="#2D2D2D" width="10" height="10"/>
</g>
<rect x="80" fill="#2D2D2D" width="10" height="10"/>
<rect x="100" opacity="0.15" fill="#2D2D2D" enable-background="new    " width="10" height="10"/>
<rect x="110" fill="#2D2D2D" width="10" height="10"/>
</svg>
