<?xml version="1.0" encoding="utf-8"?>
<!-- Generator: Adobe Illustrator 15.0.2, SVG Export Plug-In . SVG Version: 6.00 Build 0)  -->
<!DOCTYPE svg PUBLIC "-//W3C//DTD SVG 1.1//EN" "http://www.w3.org/Graphics/SVG/1.1/DTD/svg11.dtd">
<svg version="1.1" id="Calque_1" xmlns="http://www.w3.org/2000/svg" xmlns:xlink="http://www.w3.org/1999/xlink" x="0px" y="0px"
	 width="95px" height="32px" viewBox="0 -1 95 32" enable-background="new 0 -1 95 32" xml:space="preserve">
<g opacity="0.15">
	<polygon fill="#2D2D2D" points="1,2.57 12.455,14.997 1,27.434 4.176,30 18,14.997 4.176,0 	"/>
</g>
<g>
	<polygon fill="#2D2D2D" points="77,2.57 88.454,14.997 77,27.434 80.176,30 94,14.997 80.176,0 	"/>
</g>
<g>
	<polygon fill="#2D2D2D" points="58,2.57 69.454,14.997 58,27.434 61.176,30 75,14.997 61.176,0 	"/>
</g>
<g>
	<polygon fill="#2D2D2D" points="39,2.57 50.454,14.997 39,27.434 42.175,30 56,14.997 42.176,0 	"/>
</g>
<g>
	<polygon fill="#2D2D2D" points="20,2.57 31.456,14.997 20,27.434 23.175,30 37,14.997 23.176,0 	"/>
</g>
</svg>
