<?xml version="1.0" encoding="utf-8"?>
<!-- Generator: Adobe Illustrator 15.0.2, SVG Export Plug-In . SVG Version: 6.00 Build 0)  -->
<!DOCTYPE svg PUBLIC "-//W3C//DTD SVG 1.1//EN" "http://www.w3.org/Graphics/SVG/1.1/DTD/svg11.dtd">
<svg version="1.1" id="Calque_1" xmlns="http://www.w3.org/2000/svg" xmlns:xlink="http://www.w3.org/1999/xlink" x="0px" y="0px"
	 width="95px" height="32px" viewBox="0 -1 95 32" enable-background="new 0 -1 95 32" xml:space="preserve">
<g opacity="0.15">
	<polygon fill="#2D2D2D" points="18,27.43 6.545,15.003 18,2.566 14.824,0 1,15.003 14.824,30 	"/>
</g>
<g>
	<polygon fill="#2D2D2D" points="37,27.43 25.546,15.003 37,2.566 33.824,0 20,15.003 33.824,30 	"/>
</g>
<g>
	<polygon fill="#2D2D2D" points="56,27.43 44.546,15.003 56,2.566 52.824,0 39,15.003 52.824,30 	"/>
</g>
<g>
	<polygon fill="#2D2D2D" points="75,27.43 63.546,15.003 75,2.566 71.825,0 58,15.003 71.824,30 	"/>
</g>
<g>
	<polygon fill="#2D2D2D" points="94,27.43 82.544,15.003 94,2.566 90.825,0 77,15.003 90.824,30 	"/>
</g>
</svg>
